<svg xmlns="http://www.w3.org/2000/svg" width="16" height="16" viewBox="0 0 16 16">
    <path fill="#2C3038" fill-rule="nonzero" d="M15.501 10.595a7.938 7.938 0 0 0 .444-2.622 7.938 7.938 0 0 0-.47-2.695C14.37 2.204 11.424 0 7.973 0 4.522 0 1.576 2.204.47 5.278A7.938 7.938 0 0 0 0 7.973a7.938 7.938 0 0 0 .47 2.694c1.107 3.074 4.053 5.278 7.503 5.278 3.451 0 6.397-2.204 7.504-5.278a.57.57 0 0 0 .025-.072zm-7.529 4.207c-.303 0-.793-.55-1.202-1.777a12.516 12.516 0 0 1-.47-2.014h3.346c-.116.74-.274 1.422-.471 2.014-.41 1.228-.899 1.777-1.203 1.777zM6.161 9.868a21.173 21.173 0 0 1 0-3.791h3.623a21.173 21.173 0 0 1 0 3.791H6.161zM1.143 7.973c0-.658.093-1.294.268-1.896h3.603a22.244 22.244 0 0 0 0 3.791H1.411a6.81 6.81 0 0 1-.268-1.895zm6.83-6.83c.303 0 .793.55 1.202 1.777.197.592.355 1.273.47 2.014H6.3c.116-.74.274-1.422.471-2.014.41-1.228.899-1.777 1.202-1.777zm2.957 4.934h3.604a6.81 6.81 0 0 1 0 3.791H10.93a22.244 22.244 0 0 0 0-3.791zm3.158-1.143h-3.289c-.203-1.402-.552-2.66-1.04-3.554a6.86 6.86 0 0 1 4.329 3.554zM6.187 1.38c-.49.895-.838 2.152-1.041 3.554H1.857a6.86 6.86 0 0 1 4.33-3.554zm-4.33 9.631h3.289c.203 1.402.552 2.66 1.04 3.554a6.86 6.86 0 0 1-4.329-3.554zm7.901 3.554c.49-.895.838-2.152 1.041-3.554h3.289a6.86 6.86 0 0 1-4.33 3.554z"/>
</svg>
