
<svg height="24" viewBox="0 0 40 24" width="40" xmlns="http://www.w3.org/2000/svg"><g fill="#fff" fill-rule="evenodd"><path d="m18.51328 10.38748c0-.242.0516-.458.1548-.6444.1024-.1872.2384-.3396.4072-.4612.168-.1212.3572-.2132.5676-.2752.2096-.0616.4208-.0928.634-.0928.2124 0 .4244.0312.6348.0928.2092.062.3984.154.5664.2752.1692.1216.3048.274.408.4612.1032.1864.1544.4024.1544.6444v3.186c0 .2472-.0512.464-.1544.6476-.1032.1844-.2388.336-.408.4576-.168.122-.3572.2144-.5664.2756-.2104.0616-.4224.0924-.6348.0924-.2132 0-.4244-.0308-.634-.0924-.2104-.0612-.3996-.1536-.5676-.2756-.1688-.1216-.3048-.2732-.4072-.4576-.1032-.1836-.1548-.4004-.1548-.6476zm1.0124 3.1876c0 .2076.1156.3624.2572.4608.1408.0992.3076.1516.5.1516.1916 0 .3592-.0524.5004-.1516.1404-.0984.2208-.2532.2208-.4608v-3.186c0-.2084-.0804-.3628-.2208-.4612-.1412-.0988-.3088-.1652-.5004-.1652-.1924 0-.3592.0664-.5.1652-.1416.0984-.2572.2528-.2572.4612z"/><path d="m16.689 8.908v2.587h-1.613v-2.587h-.883v6.142h.883v-2.588h1.613v2.588h.95v-6.142z"/><path d="m26.216 8.908h-3.503v.903h1.295l-.016 5.239h.932v-5.239h1.292z"/><path d="m32.71172 14.3834h7.128l-4.262-4.7992-4.2432-4.7992-4.244-4.7848h-21.3208l4.2432 4.7848h-7.144l4.244 4.7992.0328.0324h-7.1456l4.2608 4.7992 4.2456 4.7992 4.2436 4.7852h21.3208l-4.2456-4.7852-.0312-.0468h7.1452zm-12.792 5.5912c-4.7604 0-8.6192-3.5704-8.6192-7.974 0-4.4052 3.8588-7.9756 8.6192-7.9756 4.7608 0 8.62 3.5704 8.62 7.9756 0 4.4036-3.8592 7.974-8.62 7.974z"/></g></svg>